Coordinates
version=1
nRows=7
nColumns=40
inDegrees=yes

Units are S.I. units (second, meters, Newtons, ...)
Angles are in degrees.

endheader
time	pelvis_tilt	pelvis_list	pelvis_rotation	pelvis_tx	pelvis_ty	pelvis_tz	hip_flexion_r	hip_adduction_r	hip_rotation_r	knee_angle_r	knee_angle_r_beta	ankle_angle_r	subtalar_angle_r	mtp_angle_r	hip_flexion_l	hip_adduction_l	hip_rotation_l	knee_angle_l	knee_angle_l_beta	ankle_angle_l	subtalar_angle_l	mtp_angle_l	lumbar_extension	lumbar_bending	lumbar_rotation	arm_flex_r	arm_add_r	arm_rot_r	elbow_flex_r	pro_sup_r	wrist_flex_r	wrist_dev_r	arm_flex_l	arm_add_l	arm_rot_l	elbow_flex_l	pro_sup_l	wrist_flex_l	wrist_dev_l
     14.91500000	     -4.94116382	     -4.95303319	      6.12757272	      1.01711397	      0.92293766	      0.49380987	      1.94057097	      3.92108816	    -16.42009520	     10.46358708	     10.46358708	     15.27822003	      2.75506963	     -5.58373376	     31.25956239	     -6.61210554	     -1.32016018	     23.92889313	     23.92889313	      8.04865386	    -10.28868244	      8.32073980	     -9.95054921	      4.58074745	      3.37155501	     32.24887623	    -17.13311225	     -8.55926909	     82.29688314	     44.59568311	      0.00000000	      0.00000000	     -2.54431508	     -7.46472885	     -4.26727467	     28.94157174	     45.86622252	      0.00000000	      0.00000000
     14.92807143	     -4.93652108	     -5.11249600	      5.91375540	      1.01866339	      0.92161232	      0.49248681	      1.64984139	      4.01005253	    -16.01957745	     10.85074255	     10.85074255	     15.97133164	      2.45984393	     -4.95461299	     30.90906954	     -6.58964945	     -0.73282499	     24.68936451	     24.68936451	      7.31760149	    -11.76167867	      7.71579251	     -9.77524121	      4.59364233	      3.32016686	     32.14205300	    -17.06937775	     -7.09169578	     82.67897888	     44.55203893	      0.00000000	      0.00000000	     -2.54445012	     -7.59182483	     -4.73417188	     29.23300371	     45.94073413	      0.00000000	      0.00000000
     14.94114286	     -4.84655270	     -5.08874645	      5.61435559	      1.02053587	      0.92060410	      0.49108937	      1.26758986	      3.86893645	    -15.63041875	     11.34398669	     11.34398669	     16.90260883	      2.44593959	     -3.84438339	     30.23738786	     -6.51301146	     -0.61432144	     25.11659455	     25.11659455	      6.62645756	    -12.58007794	      6.54572336	     -9.60452625	      4.37086620	      3.21985076	     31.89106326	    -17.11174662	     -5.29215738	     82.52043288	     44.53439088	      0.00000000	      0.00000000	     -2.48564655	     -7.74013725	     -5.60678426	     29.58428838	     46.07594820	      0.00000000	      0.00000000
     14.95421429	     -4.72581603	     -5.07963402	      5.36660517	      1.02245793	      0.91976216	      0.48954436	      0.78293344	      3.74362975	    -15.34750351	     11.65719332	     11.65719332	     17.32576340	      2.46170192	     -3.83900364	     29.66987792	     -6.45885051	     -0.48464440	     25.71418719	     25.71418719	      6.54743416	    -12.94038248	      6.39298266	     -9.53023210	      4.16840692	      3.28616195	     31.45562901	    -16.71553286	     -4.93716997	     82.37708292	     44.53145046	      0.00000000	      0.00000000	     -2.21245702	     -7.95062340	     -5.74630760	     29.66674905	     46.10137302	      0.00000000	      0.00000000
     14.96728571	     -4.65533010	     -5.06419774	      5.14380235	      1.02439613	      0.91910833	      0.48782934	      0.34311543	      3.59087765	    -15.07530428	     11.94152619	     11.94152619	     17.64964838	      2.46614070	     -3.89356627	     29.13774724	     -6.37349222	     -0.33362241	     26.17151751	     26.17151751	      6.60400035	    -13.19205356	      6.28539333	     -9.36729061	      3.98255814	      3.31729737	     30.84706209	    -16.29449431	     -4.58440178	     82.22213834	     44.52411858	      0.00000000	      0.00000000	     -1.86170892	     -8.17271759	     -5.80746514	     29.77390577	     46.11647298	      0.00000000	      0.00000000
     14.98035714	     -4.56578128	     -4.90656158	      4.93472282	      1.02611968	      0.91876533	      0.48572907	      0.27065751	      3.13926053	    -14.86828575	     13.04257563	     13.04257563	     18.63361287	      2.39573648	     -2.21695094	     28.56116555	     -6.02362888	      0.05340888	     26.46128097	     26.46128097	      6.23905971	    -14.23379204	      5.73164628	     -9.30139974	      3.67179320	      3.01391452	     30.50505645	    -16.59318078	     -2.01077821	     81.64587154	     44.51232296	      0.00000000	      0.00000000	     -1.52561743	     -8.24643193	     -6.78701416	     29.54583401	     46.26106227	      0.00000000	      0.00000000
     14.99342857	     -4.43670447	     -4.86963835	      4.81029298	      1.02788927	      0.91878583	      0.48354460	     -0.13203074	      2.90572236	    -14.71291146	     13.47514441	     13.47514441	     18.73294430	      2.34903075	     -2.26458170	     28.04587166	     -5.87937885	      0.19508070	     26.82688348	     26.82688348	      6.49521838	    -14.42120248	      5.59693607	     -9.27281612	      3.51071461	      2.93072443	     29.66645589	    -16.17594978	     -1.70115337	     81.38202872	     44.50930351	      0.00000000	      0.00000000	     -1.07369927	     -8.41519690	     -6.83243580	     29.69870393	     46.27495955	      0.00000000	      0.00000000
